<svg width="136" height="136" xmlns="http://www.w3.org/2000/svg" xmlns:xlink="http://www.w3.org/1999/xlink" xml:space="preserve" overflow="hidden"><g><path d="M130.333 68C130.333 64.8833 127.783 62.3333 124.667 62.3333 123.533 62.3333 122.542 62.6167 121.692 63.1833L97.4667 77.0667C97.75 78.625 97.75 80.1833 97.4667 81.8833 96.3333 87.125 91.375 90.6667 85.9917 90.6667L60.9167 90.6667 60.9167 85 86.4167 85C89.5333 85 92.0833 82.45 92.0833 79.3333 92.0833 76.2167 89.5333 73.6667 86.4167 73.6667 86.4167 73.6667 52.7 73.6667 52.4167 73.6667 50.0083 73.6667 47.7417 74.375 45.7583 75.5083L5.66667 94.9167 25.5 114.75C34.7083 105.542 46.6083 102 59.5 102L85.9917 102C87.2667 102 88.4 101.575 89.3917 100.867L128.35 72.3917C129.483 71.2583 130.333 69.7 130.333 68Z" stroke="#91CF4F" stroke-width="1.33333" fill="#548235"/><path d="M110.642 21.5333C110.642 21.5333 93.075 19.2667 83.725 28.6167 76.925 35.4167 76.2167 46.325 76.3583 51.9917 73.3833 54.1167 70.8333 57.2333 69.1333 60.9167 68.7083 60.35 68.425 59.7833 68 59.2167 68.1417 54.5417 67.4333 45.6167 61.9083 40.0917 54.1167 32.3 39.6667 34.2833 39.6667 34.2833 39.6667 34.2833 37.825 48.7333 45.475 56.525 50.4333 61.4833 58.3667 62.475 63.1833 62.6167 64.6 64.175 65.5917 66.4417 66.3 68.425 66.4417 68.85 66.5833 69.8417 66.5833 71.1167L72.3917 71.1167C72.5333 68.1417 72.9583 66.4417 74.0917 64.0333 75.5083 60.6333 77.9167 57.8 80.75 56.1 86.5583 56.2417 97.0417 55.25 103.558 48.7333 112.908 39.1 110.642 21.5333 110.642 21.5333Z" stroke="#91CF4F" stroke-width="1.33333" fill="#548235"/></g></svg>