<svg width="243" height="162" xmlns="http://www.w3.org/2000/svg" xmlns:xlink="http://www.w3.org/1999/xlink" xml:space="preserve" overflow="hidden"><g transform="translate(-542 -187)"><path d="M137.723 92.2816C137.202 92.1537 136.679 92.0244 136.163 91.906 126.591 90.0841 117.019 90.6913 106.385 89.4767 98.9756 88.2674 90.5138 88.8627 83.0965 88.8685 83.0382 88.8685 83.0382 88.8715 83.0965 88.8752 100.705 89.9866 119.204 89.5732 136.119 93.7697 136.122 93.7703 136.123 93.7737 136.121 93.7757 134.408 95.2074 132.362 96.3495 129.981 96.3495 124.244 95.7838 118.582 95.388 112.967 95.1166L112.967 92.7042C97.0157 94.527 82.1256 89.6667 66.174 92.7042 66.6508 92.9765 66.4889 93.3697 66.3555 93.7217 66.3302 93.7886 66.287 93.9161 66.287 93.9161 66.287 93.9161 66.4359 93.9104 66.5101 93.9077 82.1164 93.3299 96.7231 93.9148 112.318 95.0872 112.32 95.0876 112.322 95.0876 112.32 95.0876 87.9883 93.9512 64.529 95.1345 39.5877 95.1345 38.526 95.1345 36.3984 95.1345 35.3349 95.1345 31.0824 93.3134 26.8285 92.7048 22.5791 92.7045 22.5767 92.7045 22.575 92.7021 22.576 92.7001 23.6321 89.6613 19.3863 83.5927 27.8917 84.807L27.8917 82.3777C19.3823 79.3402 16.1912 70.8348 24.7006 68.4048 34.2704 65.9755 47.033 68.4048 58.7287 67.1902 67.2384 66.5827 75.7465 65.9752 84.2515 67.1902 95.9492 69.0127 108.711 68.4048 120.408 70.8348 124.663 71.4423 132.108 69.6202 134.236 71.4423 135.764 72.3155 135.825 73.6088 135.591 75.0509 128.598 74.8366 121.628 74.7701 114.735 74.5051 106.435 73.8372 98.1349 73.0961 89.8401 71.9267 89.6839 71.9047 89.8452 71.9547 90.0818 72.0009 98.1224 73.5639 106.371 74.1832 114.734 74.5051 121.611 75.0593 128.493 75.5636 135.371 76.2146 135.12 77.4546 134.878 78.7479 135.297 79.9473L138.487 79.9473C142.742 82.9848 141.676 87.238 139.553 90.2755 139.011 90.8911 138.402 91.5867 137.723 92.2816Z" fill="#C4DFB3" transform="matrix(1.5 0 0 1 542 187)"/></g></svg>