<svg width="138" height="138" xmlns="http://www.w3.org/2000/svg" xmlns:xlink="http://www.w3.org/1999/xlink" xml:space="preserve" overflow="hidden"><g transform="translate(-96 -96)"><path d="M127.625 179.389C121.274 179.389 116.125 184.538 116.125 190.889 116.125 197.241 121.274 202.389 127.625 202.389 133.976 202.389 139.125 197.241 139.125 190.889 139.117 184.541 133.973 179.397 127.625 179.389ZM127.625 199.514C122.862 199.514 119 195.653 119 190.889 119 186.126 122.862 182.264 127.625 182.264 132.388 182.264 136.25 186.126 136.25 190.889 136.247 195.652 132.388 199.514 127.625 199.52Z" stroke="#5B9BD5" stroke-width="1.33333" fill="#6F2F9F"/><path d="M225.95 166.16 218.331 160.41C217.332 159.666 216.621 158.6 216.319 157.391L213.444 147.473C211.98 142.566 207.495 139.183 202.375 139.125L188 139.125 188 130.5 101.75 130.5 101.75 190.892 113.25 190.892C113.25 189.927 113.346 188.964 113.537 188.017L104.625 188.017 104.625 169.236 185.125 169.236 185.125 188.017 141.712 188.017C141.905 188.963 142.001 189.927 142 190.892L189.438 190.892C189.437 189.927 189.533 188.964 189.725 188.017L188 188.017 188 142 193.75 142 193.75 162.049 215.859 162.049C216.101 162.29 216.359 162.516 216.631 162.723L224.188 168.428C224.928 168.976 225.368 169.84 225.375 170.762L225.375 185.137C225.375 186.724 224.088 188.012 222.5 188.012L217.9 188.012C218.092 188.958 218.189 189.921 218.188 190.887L222.5 190.887C225.671 190.876 228.24 188.308 228.25 185.137L228.25 170.762C228.244 168.953 227.393 167.25 225.95 166.16ZM185.125 166.361 104.625 166.361 104.625 133.375 185.125 133.375ZM196.625 142 202.375 142C206.209 142.068 209.564 144.597 210.684 148.265L213.546 158.14C213.644 158.491 213.764 158.836 213.908 159.171L196.625 159.171Z" stroke="#5B9BD5" stroke-width="1.33333" fill="#6F2F9F"/><path d="M203.812 179.389C197.461 179.389 192.312 184.538 192.312 190.889 192.312 197.241 197.461 202.389 203.812 202.389 210.164 202.389 215.312 197.241 215.312 190.889 215.305 184.541 210.16 179.397 203.812 179.389ZM203.812 199.514C199.049 199.514 195.188 195.653 195.188 190.889 195.188 186.126 199.049 182.264 203.812 182.264 208.576 182.264 212.438 186.126 212.438 190.889 212.434 195.652 208.576 199.514 203.812 199.52Z" stroke="#5B9BD5" stroke-width="1.33333" fill="#6F2F9F"/></g></svg>